<?xml version="1.0" standalone="no"?><!DOCTYPE svg PUBLIC "-//W3C//DTD SVG 1.1//EN" "http://www.w3.org/Graphics/SVG/1.1/DTD/svg11.dtd"><svg t="1708433676433" class="icon" viewBox="0 0 1024 1024" version="1.1" xmlns="http://www.w3.org/2000/svg" p-id="9710" xmlns:xlink="http://www.w3.org/1999/xlink" width="64" height="64"><path d="M853.333333 426.666667a42.666667 42.666667 0 1 1 85.333334 0v426.666666a128 128 0 0 1-128 128H213.333333a128 128 0 0 1-128-128V170.666667a128 128 0 0 1 128-128h384a42.666667 42.666667 0 1 1 0 85.333333H213.333333a42.666667 42.666667 0 0 0-42.666666 42.666667v682.666666a42.666667 42.666667 0 0 0 42.666666 42.666667h597.333334a42.666667 42.666667 0 0 0 42.666666-42.666667V426.666667z m-298.666666 128H341.333333a42.666667 42.666667 0 1 1 0-85.333334h213.333334a42.666667 42.666667 0 1 1 0 85.333334z m-213.333334 170.666666h341.333334a42.666667 42.666667 0 1 0 0-85.333333H341.333333a42.666667 42.666667 0 1 0 0 85.333333zM968.832 115.498667L712.533333 371.84A42.666667 42.666667 0 1 1 652.16 311.466667l256.341333-256.341334a42.666667 42.666667 0 1 1 60.330667 60.330667z" fill="#FFC423" p-id="9711"></path></svg>