<?xml version="1.0" standalone="no"?><!DOCTYPE svg PUBLIC "-//W3C//DTD SVG 1.1//EN" "http://www.w3.org/Graphics/SVG/1.1/DTD/svg11.dtd"><svg t="1708433602688" class="icon" viewBox="0 0 1024 1024" version="1.1" xmlns="http://www.w3.org/2000/svg" p-id="7452" xmlns:xlink="http://www.w3.org/1999/xlink" width="64" height="64"><path d="M371.2 609.28c8.533333 8.533333 12.8 18.773333 12.8 30.72s-4.266667 21.896533-12.8 29.866667c-7.970133 8.533333-17.92 12.8-29.866667 12.8s-22.186667-4.266667-30.72-12.8c-7.970133-7.970133-11.946667-17.92-11.946666-29.866667s3.976533-22.186667 11.946666-30.72c8.533333-7.9872 18.773333-11.946667 30.72-11.946667s21.896533 3.959467 29.866667 11.946667zM426.666667 835.413333V853.333333H256v-17.92c0-23.330133 8.2432-43.52 24.746667-60.586666 17.066667-16.503467 37.256533-24.746667 60.586666-24.746667s43.229867 8.2432 59.733334 24.746667c17.066667 17.066667 25.6 37.256533 25.6 60.586666z" p-id="7453" fill="#FFC423"></path><path d="M768 955.733333H256c-66.030933 0-102.4-36.369067-102.4-102.4V170.666667c0-66.030933 36.369067-102.4 102.4-102.4h512c66.030933 0 102.4 36.369067 102.4 102.4v682.666666c0 66.030933-36.369067 102.4-102.4 102.4zM187.733333 529.066667v324.266666c0 47.223467 21.0432 68.266667 68.266667 68.266667h512c47.223467 0 68.266667-21.0432 68.266667-68.266667V529.066667H187.733333z m0-34.133334h648.533334V170.666667c0-47.223467-21.0432-68.266667-68.266667-68.266667H256c-47.223467 0-68.266667 21.0432-68.266667 68.266667v324.266666z m580.266667 375.466667h-85.333333a17.066667 17.066667 0 1 1 0-34.133333h85.333333a17.066667 17.066667 0 1 1 0 34.133333z m-170.666667 0h-84.48a17.066667 17.066667 0 1 1 0-34.133333H597.333333a17.066667 17.066667 0 1 1 0 34.133333z m-170.666666 0H256a17.066667 17.066667 0 0 1-17.066667-17.066667v-17.92c0-27.8016 9.949867-52.189867 29.5424-72.448 20.6848-20.0192 45.056-29.952 72.8576-29.952 27.904 0 52.053333 10.018133 71.799467 29.7472C433.442133 783.069867 443.733333 807.509333 443.733333 835.413333V853.333333a17.066667 17.066667 0 0 1-17.066666 17.066667z m-153.6-34.133333l136.533333-0.853334c0-18.7904-6.741333-34.645333-20.599467-48.520533-13.294933-13.277867-28.8768-19.746133-47.6672-19.746133-18.8928 0-34.833067 6.536533-48.708266 19.950933-13.038933 13.482667-19.5584 29.422933-19.5584 48.315733V836.266667z m409.6-51.2h-169.813334a17.066667 17.066667 0 1 1 0-34.133334H682.666667a17.066667 17.066667 0 1 1 0 34.133334z m85.333333-85.333334H512.853333a17.066667 17.066667 0 1 1 0-34.133333H768a17.066667 17.066667 0 1 1 0 34.133333z m-426.666667 0a58.5728 58.5728 0 0 1-42.786133-17.800533c-11.246933-11.229867-16.9472-25.344-16.9472-41.9328 0-16.366933 5.563733-30.6176 16.554667-42.359467C310.698667 585.8304 324.9664 580.266667 341.333333 580.266667c16.605867 0 30.72 5.700267 41.949867 16.964266 11.793067 11.793067 17.783467 26.197333 17.783467 42.769067s-6.2976 31.214933-18.210134 42.3424C372.548267 693.435733 357.905067 699.733333 341.333333 699.733333z m0-85.333333c-7.645867 0-13.704533 2.338133-19.063466 7.355733-4.1984 4.539733-6.536533 10.615467-6.536534 18.244267 0 7.406933 2.2016 13.073067 6.946134 17.800533 5.3248 5.307733 11.246933 7.799467 18.653866 7.799467 7.2704 0 12.629333-2.286933 17.390934-7.389867 5.9392-5.5808 8.209067-10.939733 8.209066-18.210133a24.917333 24.917333 0 0 0-7.799466-18.653867l-0.017067-0.017066C354.389333 616.6016 348.740267 614.4 341.333333 614.4z m426.666667 0h-85.333333a17.066667 17.066667 0 1 1 0-34.133333h85.333333a17.066667 17.066667 0 1 1 0 34.133333z m-170.666667 0h-84.48a17.066667 17.066667 0 1 1 0-34.133333H597.333333a17.066667 17.066667 0 1 1 0 34.133333z m170.666667-170.666667a17.066667 17.066667 0 0 1-17.066667-17.066666v-85.333334a17.066667 17.066667 0 1 1 34.133334 0v85.333334a17.066667 17.066667 0 0 1-17.066667 17.066666z m-426.666667 0a17.066667 17.066667 0 0 1-17.066666-17.066666V256a17.066667 17.066667 0 0 1 34.133333 0v170.666667a17.066667 17.066667 0 0 1-17.066667 17.066666z m-85.333333 0a17.066667 17.066667 0 0 1-17.066667-17.066666V170.666667a17.066667 17.066667 0 0 1 34.133334 0v256a17.066667 17.066667 0 0 1-17.066667 17.066666z m512-170.666666a17.066667 17.066667 0 0 1-17.066667-17.066667v-85.333333a17.066667 17.066667 0 1 1 34.133334 0v85.333333a17.066667 17.066667 0 0 1-17.066667 17.066667z" p-id="7454" fill="#FFC423"></path></svg>